<svg width="1920" height="720" viewBox="0 0 1920 720" fill="none" xmlns="http://www.w3.org/2000/svg">
<path d="M1920 0H0V720H1920V0Z" fill="#474D66"/>
<path d="M0 253L24.7 252.8C49.3 252.7 98.7 252.3 147.8 257.3C197 262.3 246 272.7 295.2 280.5C344.3 288.3 393.7 293.7 443 289.5C492.3 285.3 541.7 271.7 590.8 267.3C640 263 689 268 738.2 269.7C787.3 271.3 836.7 269.7 886 274.3C935.3 279 984.7 290 1034 295.7C1083.3 301.3 1132.7 301.7 1181.8 295.3C1231 289 1280 276 1329.2 274.2C1378.3 272.3 1427.7 281.7 1477 278.8C1526.3 276 1575.7 261 1624.8 259.7C1674 258.3 1723 270.7 1772.2 281.2C1821.3 291.7 1870.7 300.3 1895.3 304.7L1920 309V721H1895.3C1870.7 721 1821.3 721 1772.2 721C1723 721 1674 721 1624.8 721C1575.7 721 1526.3 721 1477 721C1427.7 721 1378.3 721 1329.2 721C1280 721 1231 721 1181.8 721C1132.7 721 1083.3 721 1034 721C984.7 721 935.3 721 886 721C836.7 721 787.3 721 738.2 721C689 721 640 721 590.8 721C541.7 721 492.3 721 443 721C393.7 721 344.3 721 295.2 721C246 721 197 721 147.8 721C98.7 721 49.3 721 24.7 721H0V253Z" fill="#474D66"/>
<path d="M0 294L24.7 303.2C49.3 312.3 98.7 330.7 147.8 333.5C197 336.3 246 323.7 295.2 320.5C344.3 317.3 393.7 323.7 443 329C492.3 334.3 541.7 338.7 590.8 339C640 339.3 689 335.7 738.2 327.3C787.3 319 836.7 306 886 309C935.3 312 984.7 331 1034 334.2C1083.3 337.3 1132.7 324.7 1181.8 314.5C1231 304.3 1280 296.7 1329.2 300.7C1378.3 304.7 1427.7 320.3 1477 325.2C1526.3 330 1575.7 324 1624.8 323.7C1674 323.3 1723 328.7 1772.2 329.3C1821.3 330 1870.7 326 1895.3 324L1920 322V721H1895.3C1870.7 721 1821.3 721 1772.2 721C1723 721 1674 721 1624.8 721C1575.7 721 1526.3 721 1477 721C1427.7 721 1378.3 721 1329.2 721C1280 721 1231 721 1181.8 721C1132.7 721 1083.3 721 1034 721C984.7 721 935.3 721 886 721C836.7 721 787.3 721 738.2 721C689 721 640 721 590.8 721C541.7 721 492.3 721 443 721C393.7 721 344.3 721 295.2 721C246 721 197 721 147.8 721C98.7 721 49.3 721 24.7 721H0V294Z" fill="#455470"/>
<path d="M0 345L24.7 352.5C49.3 360 98.7 375 147.8 376.3C197 377.7 246 365.3 295.2 358.3C344.3 351.3 393.7 349.7 443 348.3C492.3 347 541.7 346 590.8 354.2C640 362.3 689 379.7 738.2 381.2C787.3 382.7 836.7 368.3 886 367.7C935.3 367 984.7 380 1034 382.2C1083.3 384.3 1132.7 375.7 1181.8 375.5C1231 375.3 1280 383.7 1329.2 381C1378.3 378.3 1427.7 364.7 1477 355.2C1526.3 345.7 1575.7 340.3 1624.8 336.8C1674 333.3 1723 331.7 1772.2 340.2C1821.3 348.7 1870.7 367.3 1895.3 376.7L1920 386V721H1895.3C1870.7 721 1821.3 721 1772.2 721C1723 721 1674 721 1624.8 721C1575.7 721 1526.3 721 1477 721C1427.7 721 1378.3 721 1329.2 721C1280 721 1231 721 1181.8 721C1132.7 721 1083.3 721 1034 721C984.7 721 935.3 721 886 721C836.7 721 787.3 721 738.2 721C689 721 640 721 590.8 721C541.7 721 492.3 721 443 721C393.7 721 344.3 721 295.2 721C246 721 197 721 147.8 721C98.7 721 49.3 721 24.7 721H0V345Z" fill="#415C7A"/>
<path d="M0 385L24.7 389.5C49.3 394 98.7 403 147.8 399.7C197 396.3 246 380.7 295.2 375.3C344.3 370 393.7 375 443 377.7C492.3 380.3 541.7 380.7 590.8 383.5C640 386.3 689 391.7 738.2 391.7C787.3 391.7 836.7 386.3 886 385.8C935.3 385.3 984.7 389.7 1034 394.2C1083.3 398.7 1132.7 403.3 1181.8 402.2C1231 401 1280 394 1329.2 388.2C1378.3 382.3 1427.7 377.7 1477 380.5C1526.3 383.3 1575.7 393.7 1624.8 396.8C1674 400 1723 396 1772.2 394.8C1821.3 393.7 1870.7 395.3 1895.3 396.2L1920 397V721H1895.3C1870.7 721 1821.3 721 1772.2 721C1723 721 1674 721 1624.8 721C1575.7 721 1526.3 721 1477 721C1427.7 721 1378.3 721 1329.2 721C1280 721 1231 721 1181.8 721C1132.7 721 1083.3 721 1034 721C984.7 721 935.3 721 886 721C836.7 721 787.3 721 738.2 721C689 721 640 721 590.8 721C541.7 721 492.3 721 443 721C393.7 721 344.3 721 295.2 721C246 721 197 721 147.8 721C98.7 721 49.3 721 24.7 721H0V385Z" fill="#3A6483"/>
<path d="M0 412.999L24.7 411.999C49.3 410.999 98.7 408.999 147.8 409.999C197 410.999 246 414.999 295.2 418.999C344.3 422.999 393.7 426.999 443 432.799C492.3 438.699 541.7 446.299 590.8 442.999C640 439.699 689 425.299 738.2 425.199C787.3 424.999 836.7 438.999 886 444.799C935.3 450.699 984.7 448.299 1034 441.799C1083.3 435.299 1132.7 424.699 1181.8 424.799C1231 424.999 1280 435.999 1329.2 443.999C1378.3 451.999 1427.7 456.999 1477 455.499C1526.3 453.999 1575.7 445.999 1624.8 444.199C1674 442.299 1723 446.699 1772.2 443.999C1821.3 441.299 1870.7 431.699 1895.3 426.799L1920 421.999V720.999H1895.3C1870.7 720.999 1821.3 720.999 1772.2 720.999C1723 720.999 1674 720.999 1624.8 720.999C1575.7 720.999 1526.3 720.999 1477 720.999C1427.7 720.999 1378.3 720.999 1329.2 720.999C1280 720.999 1231 720.999 1181.8 720.999C1132.7 720.999 1083.3 720.999 1034 720.999C984.7 720.999 935.3 720.999 886 720.999C836.7 720.999 787.3 720.999 738.2 720.999C689 720.999 640 720.999 590.8 720.999C541.7 720.999 492.3 720.999 443 720.999C393.7 720.999 344.3 720.999 295.2 720.999C246 720.999 197 720.999 147.8 720.999C98.7 720.999 49.3 720.999 24.7 720.999H0V412.999Z" fill="#316C8B"/>
<path d="M0 447L24.7 447.8C49.3 448.7 98.7 450.3 147.8 457.3C197 464.3 246 476.7 295.2 475.5C344.3 474.3 393.7 459.7 443 459.3C492.3 459 541.7 473 590.8 476.5C640 480 689 473 738.2 468C787.3 463 836.7 460 886 456C935.3 452 984.7 447 1034 450.2C1083.3 453.3 1132.7 464.7 1181.8 465.7C1231 466.7 1280 457.3 1329.2 459.3C1378.3 461.3 1427.7 474.7 1477 474.3C1526.3 474 1575.7 460 1624.8 451.5C1674 443 1723 440 1772.2 446.3C1821.3 452.7 1870.7 468.3 1895.3 476.2L1920 484V721H1895.3C1870.7 721 1821.3 721 1772.2 721C1723 721 1674 721 1624.8 721C1575.7 721 1526.3 721 1477 721C1427.7 721 1378.3 721 1329.2 721C1280 721 1231 721 1181.8 721C1132.7 721 1083.3 721 1034 721C984.7 721 935.3 721 886 721C836.7 721 787.3 721 738.2 721C689 721 640 721 590.8 721C541.7 721 492.3 721 443 721C393.7 721 344.3 721 295.2 721C246 721 197 721 147.8 721C98.7 721 49.3 721 24.7 721H0V447Z" fill="#247591"/>
<path d="M0 489L24.7 491.3C49.3 493.7 98.7 498.3 147.8 496C197 493.7 246 484.3 295.2 488.7C344.3 493 393.7 511 443 514.8C492.3 518.7 541.7 508.3 590.8 501C640 493.7 689 489.3 738.2 489.5C787.3 489.7 836.7 494.3 886 499.2C935.3 504 984.7 509 1034 510C1083.3 511 1132.7 508 1181.8 507C1231 506 1280 507 1329.2 505.5C1378.3 504 1427.7 500 1477 497.8C1526.3 495.7 1575.7 495.3 1624.8 500.8C1674 506.3 1723 517.7 1772.2 520.5C1821.3 523.3 1870.7 517.7 1895.3 514.8L1920 512V721H1895.3C1870.7 721 1821.3 721 1772.2 721C1723 721 1674 721 1624.8 721C1575.7 721 1526.3 721 1477 721C1427.7 721 1378.3 721 1329.2 721C1280 721 1231 721 1181.8 721C1132.7 721 1083.3 721 1034 721C984.7 721 935.3 721 886 721C836.7 721 787.3 721 738.2 721C689 721 640 721 590.8 721C541.7 721 492.3 721 443 721C393.7 721 344.3 721 295.2 721C246 721 197 721 147.8 721C98.7 721 49.3 721 24.7 721H0V489Z" fill="#0F7D96"/>
<path d="M0 561H24.7C49.3 561 98.7 561 147.8 553.2C197 545.3 246 529.7 295.2 526C344.3 522.3 393.7 530.7 443 532C492.3 533.3 541.7 527.7 590.8 525.8C640 524 689 526 738.2 525C787.3 524 836.7 520 886 520.8C935.3 521.7 984.7 527.3 1034 531.2C1083.3 535 1132.7 537 1181.8 534.5C1231 532 1280 525 1329.2 527.5C1378.3 530 1427.7 542 1477 546.3C1526.3 550.7 1575.7 547.3 1624.8 545C1674 542.7 1723 541.3 1772.2 540.7C1821.3 540 1870.7 540 1895.3 540H1920V721H1895.3C1870.7 721 1821.3 721 1772.2 721C1723 721 1674 721 1624.8 721C1575.7 721 1526.3 721 1477 721C1427.7 721 1378.3 721 1329.2 721C1280 721 1231 721 1181.8 721C1132.7 721 1083.3 721 1034 721C984.7 721 935.3 721 886 721C836.7 721 787.3 721 738.2 721C689 721 640 721 590.8 721C541.7 721 492.3 721 443 721C393.7 721 344.3 721 295.2 721C246 721 197 721 147.8 721C98.7 721 49.3 721 24.7 721H0V561Z" fill="#00859A"/>
<path d="M0 585.999L24.7 585.299C49.3 584.699 98.7 583.299 147.8 579.999C197 576.699 246 571.299 295.2 565.799C344.3 560.299 393.7 554.699 443 555.299C492.3 555.999 541.7 562.999 590.8 565.299C640 567.699 689 565.299 738.2 563.299C787.3 561.299 836.7 559.699 886 561.699C935.3 563.699 984.7 569.299 1034 571.299C1083.3 573.299 1132.7 571.699 1181.8 567.799C1231 563.999 1280 557.999 1329.2 555.999C1378.3 553.999 1427.7 555.999 1477 561.199C1526.3 566.299 1575.7 574.699 1624.8 575.999C1674 577.299 1723 571.699 1772.2 571.799C1821.3 571.999 1870.7 577.999 1895.3 580.999L1920 583.999V720.999H1895.3C1870.7 720.999 1821.3 720.999 1772.2 720.999C1723 720.999 1674 720.999 1624.8 720.999C1575.7 720.999 1526.3 720.999 1477 720.999C1427.7 720.999 1378.3 720.999 1329.2 720.999C1280 720.999 1231 720.999 1181.8 720.999C1132.7 720.999 1083.3 720.999 1034 720.999C984.7 720.999 935.3 720.999 886 720.999C836.7 720.999 787.3 720.999 738.2 720.999C689 720.999 640 720.999 590.8 720.999C541.7 720.999 492.3 720.999 443 720.999C393.7 720.999 344.3 720.999 295.2 720.999C246 720.999 197 720.999 147.8 720.999C98.7 720.999 49.3 720.999 24.7 720.999H0V585.999Z" fill="#008E9B"/>
<path d="M0 608.999L24.7 606.999C49.3 604.999 98.7 600.999 147.8 597.699C197 594.299 246 591.699 295.2 590.999C344.3 590.299 393.7 591.699 443 594.799C492.3 597.999 541.7 602.999 590.8 605.799C640 608.699 689 609.299 738.2 606.199C787.3 602.999 836.7 595.999 886 593.299C935.3 590.699 984.7 592.299 1034 596.199C1083.3 599.999 1132.7 605.999 1181.8 606.999C1231 607.999 1280 603.999 1329.2 604.499C1378.3 604.999 1427.7 609.999 1477 609.299C1526.3 608.699 1575.7 602.299 1624.8 599.199C1674 595.999 1723 595.999 1772.2 599.499C1821.3 602.999 1870.7 609.999 1895.3 613.499L1920 616.999V720.999H1895.3C1870.7 720.999 1821.3 720.999 1772.2 720.999C1723 720.999 1674 720.999 1624.8 720.999C1575.7 720.999 1526.3 720.999 1477 720.999C1427.7 720.999 1378.3 720.999 1329.2 720.999C1280 720.999 1231 720.999 1181.8 720.999C1132.7 720.999 1083.3 720.999 1034 720.999C984.7 720.999 935.3 720.999 886 720.999C836.7 720.999 787.3 720.999 738.2 720.999C689 720.999 640 720.999 590.8 720.999C541.7 720.999 492.3 720.999 443 720.999C393.7 720.999 344.3 720.999 295.2 720.999C246 720.999 197 720.999 147.8 720.999C98.7 720.999 49.3 720.999 24.7 720.999H0V608.999Z" fill="#00969B"/>
<path d="M0 641.001L24.7 639.501C49.3 638.001 98.7 635.001 147.8 636.701C197 638.301 246 644.701 295.2 645.801C344.3 647.001 393.7 643.001 443 639.301C492.3 635.701 541.7 632.301 590.8 631.501C640 630.701 689 632.301 738.2 633.801C787.3 635.301 836.7 636.701 886 638.801C935.3 641.001 984.7 644.001 1034 643.701C1083.3 643.301 1132.7 639.701 1181.8 641.201C1231 642.701 1280 649.301 1329.2 648.201C1378.3 647.001 1427.7 638.001 1477 638.301C1526.3 638.701 1575.7 648.301 1624.8 647.701C1674 647.001 1723 636.001 1772.2 634.001C1821.3 632.001 1870.7 639.001 1895.3 642.501L1920 646.001V721.001H1895.3C1870.7 721.001 1821.3 721.001 1772.2 721.001C1723 721.001 1674 721.001 1624.8 721.001C1575.7 721.001 1526.3 721.001 1477 721.001C1427.7 721.001 1378.3 721.001 1329.2 721.001C1280 721.001 1231 721.001 1181.8 721.001C1132.7 721.001 1083.3 721.001 1034 721.001C984.7 721.001 935.3 721.001 886 721.001C836.7 721.001 787.3 721.001 738.2 721.001C689 721.001 640 721.001 590.8 721.001C541.7 721.001 492.3 721.001 443 721.001C393.7 721.001 344.3 721.001 295.2 721.001C246 721.001 197 721.001 147.8 721.001C98.7 721.001 49.3 721.001 24.7 721.001H0V641.001Z" fill="#009D99"/>
<path d="M0 666L24.7 667.5C49.3 669 98.7 672 147.8 671.3C197 670.7 246 666.3 295.2 666.8C344.3 667.3 393.7 672.7 443 675.5C492.3 678.3 541.7 678.7 590.8 676.8C640 675 689 671 738.2 670.7C787.3 670.3 836.7 673.7 886 677.8C935.3 682 984.7 687 1034 689.3C1083.3 691.7 1132.7 691.3 1181.8 688.7C1231 686 1280 681 1329.2 676.5C1378.3 672 1427.7 668 1477 667.5C1526.3 667 1575.7 670 1624.8 671.7C1674 673.3 1723 673.7 1772.2 673C1821.3 672.3 1870.7 670.7 1895.3 669.8L1920 669V721H1895.3C1870.7 721 1821.3 721 1772.2 721C1723 721 1674 721 1624.8 721C1575.7 721 1526.3 721 1477 721C1427.7 721 1378.3 721 1329.2 721C1280 721 1231 721 1181.8 721C1132.7 721 1083.3 721 1034 721C984.7 721 935.3 721 886 721C836.7 721 787.3 721 738.2 721C689 721 640 721 590.8 721C541.7 721 492.3 721 443 721C393.7 721 344.3 721 295.2 721C246 721 197 721 147.8 721C98.7 721 49.3 721 24.7 721H0V666Z" fill="#00A595"/>
</svg>
