<svg width="1920" height="1080" viewBox="0 0 1920 1080" fill="none" xmlns="http://www.w3.org/2000/svg">
<path d="M1920 1080H0V0H1920V1080Z" fill="#474D66"/>
<path d="M1920 324C1833.7 323.3 1747.4 322.6 1687.6 364.8C1627.8 407 1594.6 492.2 1525 536.3C1455.4 580.4 1349.4 583.5 1308.4 635.6C1267.4 687.8 1291.3 789.2 1278 871.4C1264.8 953.7 1214.4 1016.8 1164 1080H1920V324Z" fill="#45546F"/>
<path d="M1920 432C1846 431.4 1772 430.8 1720.8 467C1669.6 503.2 1641.1 576.2 1581.4 614C1521.8 651.8 1430.9 654.4 1395.8 699.1C1360.6 743.8 1381.1 830.7 1369.7 901.2C1358.4 971.7 1315.2 1025.9 1272 1080H1920V432Z" fill="#3C6281"/>
<path d="M1920 540C1858.4 539.5 1796.7 539 1754 569.1C1711.3 599.3 1687.6 660.2 1637.9 691.7C1588.1 723.2 1512.4 725.3 1483.1 762.6C1453.8 799.9 1470.9 872.3 1461.5 931C1452 989.8 1416 1034.9 1380 1080H1920V540Z" fill="#2A718F"/>
<path d="M1920 648C1870.7 647.6 1821.4 647.2 1787.2 671.3C1753.1 695.5 1734.1 744.1 1694.3 769.3C1654.5 794.5 1594 796.3 1570.5 826.1C1547.1 855.9 1560.7 913.8 1553.2 960.8C1545.6 1007.8 1516.8 1043.9 1488 1080H1920V648Z" fill="#008198"/>
<path d="M1920 756C1883 755.7 1846 755.4 1820.4 773.5C1794.8 791.6 1780.6 828.1 1750.7 847C1720.9 865.9 1675.5 867.2 1657.9 889.6C1640.3 911.9 1650.5 955.4 1644.9 990.6C1639.2 1025.9 1617.6 1052.9 1596 1080H1920V756Z" fill="#00909B"/>
<path d="M1920 864C1895.3 863.8 1870.7 863.6 1853.6 875.7C1836.5 887.7 1827 912.1 1807.1 924.7C1787.3 937.3 1757 938.1 1745.3 953C1733.5 967.9 1740.4 996.9 1736.6 1020.4C1732.8 1043.9 1718.4 1062 1704 1080H1920V864Z" fill="#009E99"/>
<path d="M1920 972C1907.7 971.9 1895.3 971.8 1886.8 977.8C1878.3 983.9 1873.5 996 1863.6 1002.3C1853.6 1008.6 1838.5 1009.1 1832.6 1016.5C1826.8 1024 1830.2 1038.5 1828.3 1050.2C1826.4 1062 1819.2 1071 1812 1080H1920V972Z" fill="#00A595"/>
<path d="M0 756C82.9 751.8 165.7 747.6 229.3 705.7C292.9 663.7 337.2 584 382.1 525.9C427 467.7 472.5 431.2 535.6 389.1C598.7 347 679.3 299.4 719 233.6C758.7 167.8 757.3 83.9 756 0H0V756Z" fill="#45546F"/>
<path d="M0 648C71 644.4 142 640.8 196.5 604.9C251 568.9 289 500.6 327.5 450.7C366 400.9 405 369.6 459.1 333.5C513.1 297.5 582.3 256.6 616.3 200.2C650.3 143.9 649.1 71.9 648 0H0V648Z" fill="#3C6281"/>
<path d="M0 540C59.2 537 118.4 534 163.8 504.1C209.2 474.1 240.8 417.1 272.9 375.6C305 334.1 337.5 308 382.5 277.9C427.6 247.9 485.2 213.9 513.6 166.9C541.9 119.9 541 59.9 540 0H0V540Z" fill="#2A718F"/>
<path d="M0 432C47.3 429.6 94.7 427.2 131 403.2C167.4 379.3 192.7 333.7 218.3 300.5C244 267.3 270 246.4 306 222.4C342.1 198.3 388.2 171.1 410.9 133.5C433.5 95.9 432.8 48 432 0H0V432Z" fill="#008198"/>
<path d="M0 324C35.5 322.2 71 320.4 98.3 302.4C125.5 284.5 144.5 250.3 163.7 225.4C183 200.5 202.5 184.8 229.5 166.8C256.6 148.7 291.1 128.3 308.1 100.1C325.1 71.9 324.6 36 324 0H0V324Z" fill="#00909B"/>
<path d="M0 216C23.7 214.8 47.3 213.6 65.5 201.6C83.7 189.6 96.3 166.9 109.2 150.2C122 133.6 135 123.2 153 111.2C171 99.2 194.1 85.5 205.4 66.7C216.8 48 216.4 24 216 0H0V216Z" fill="#009E99"/>
<path d="M0 108C11.8 107.4 23.7 106.8 32.8 100.8C41.8 94.8 48.2 83.4 54.6 75.1C61 66.8 67.5 61.6 76.5 55.6C85.5 49.6 97 42.8 102.7 33.4C108.4 24 108.2 12 108 0H0V108Z" fill="#00A595"/>
</svg>
