<svg id="visual" viewBox="0 0 1920 1080" width="1920" height="1080" xmlns="http://www.w3.org/2000/svg" xmlns:xlink="http://www.w3.org/1999/xlink" version="1.1"><rect x="0" y="0" width="1920" height="1080" fill="#474d66"></rect><defs><linearGradient id="grad1_0" x1="43.8%" y1="0%" x2="100%" y2="100%"><stop offset="14.444444444444446%" stop-color="#00a595" stop-opacity="1"></stop><stop offset="85.55555555555554%" stop-color="#00a595" stop-opacity="1"></stop></linearGradient></defs><defs><linearGradient id="grad1_1" x1="43.8%" y1="0%" x2="100%" y2="100%"><stop offset="14.444444444444446%" stop-color="#00a595" stop-opacity="1"></stop><stop offset="85.55555555555554%" stop-color="#00979b" stop-opacity="1"></stop></linearGradient></defs><defs><linearGradient id="grad1_2" x1="43.8%" y1="0%" x2="100%" y2="100%"><stop offset="14.444444444444446%" stop-color="#00889b" stop-opacity="1"></stop><stop offset="85.55555555555554%" stop-color="#00979b" stop-opacity="1"></stop></linearGradient></defs><defs><linearGradient id="grad1_3" x1="43.8%" y1="0%" x2="100%" y2="100%"><stop offset="14.444444444444446%" stop-color="#00889b" stop-opacity="1"></stop><stop offset="85.55555555555554%" stop-color="#1b7994" stop-opacity="1"></stop></linearGradient></defs><defs><linearGradient id="grad1_4" x1="43.8%" y1="0%" x2="100%" y2="100%"><stop offset="14.444444444444446%" stop-color="#346a89" stop-opacity="1"></stop><stop offset="85.55555555555554%" stop-color="#1b7994" stop-opacity="1"></stop></linearGradient></defs><defs><linearGradient id="grad1_5" x1="43.8%" y1="0%" x2="100%" y2="100%"><stop offset="14.444444444444446%" stop-color="#346a89" stop-opacity="1"></stop><stop offset="85.55555555555554%" stop-color="#425b79" stop-opacity="1"></stop></linearGradient></defs><defs><linearGradient id="grad1_6" x1="43.8%" y1="0%" x2="100%" y2="100%"><stop offset="14.444444444444446%" stop-color="#474d66" stop-opacity="1"></stop><stop offset="85.55555555555554%" stop-color="#425b79" stop-opacity="1"></stop></linearGradient></defs><defs><linearGradient id="grad2_0" x1="0%" y1="0%" x2="56.3%" y2="100%"><stop offset="14.444444444444446%" stop-color="#00a595" stop-opacity="1"></stop><stop offset="85.55555555555554%" stop-color="#00a595" stop-opacity="1"></stop></linearGradient></defs><defs><linearGradient id="grad2_1" x1="0%" y1="0%" x2="56.3%" y2="100%"><stop offset="14.444444444444446%" stop-color="#00979b" stop-opacity="1"></stop><stop offset="85.55555555555554%" stop-color="#00a595" stop-opacity="1"></stop></linearGradient></defs><defs><linearGradient id="grad2_2" x1="0%" y1="0%" x2="56.3%" y2="100%"><stop offset="14.444444444444446%" stop-color="#00979b" stop-opacity="1"></stop><stop offset="85.55555555555554%" stop-color="#00889b" stop-opacity="1"></stop></linearGradient></defs><defs><linearGradient id="grad2_3" x1="0%" y1="0%" x2="56.3%" y2="100%"><stop offset="14.444444444444446%" stop-color="#1b7994" stop-opacity="1"></stop><stop offset="85.55555555555554%" stop-color="#00889b" stop-opacity="1"></stop></linearGradient></defs><defs><linearGradient id="grad2_4" x1="0%" y1="0%" x2="56.3%" y2="100%"><stop offset="14.444444444444446%" stop-color="#1b7994" stop-opacity="1"></stop><stop offset="85.55555555555554%" stop-color="#346a89" stop-opacity="1"></stop></linearGradient></defs><defs><linearGradient id="grad2_5" x1="0%" y1="0%" x2="56.3%" y2="100%"><stop offset="14.444444444444446%" stop-color="#425b79" stop-opacity="1"></stop><stop offset="85.55555555555554%" stop-color="#346a89" stop-opacity="1"></stop></linearGradient></defs><defs><linearGradient id="grad2_6" x1="0%" y1="0%" x2="56.3%" y2="100%"><stop offset="14.444444444444446%" stop-color="#425b79" stop-opacity="1"></stop><stop offset="85.55555555555554%" stop-color="#474d66" stop-opacity="1"></stop></linearGradient></defs><g transform="translate(1920, 0)"><path d="M0 756C-86.3 756.7 -172.6 757.4 -232.4 715.2C-292.2 673 -325.4 587.8 -395 543.7C-464.6 499.6 -570.6 496.5 -611.6 444.4C-652.6 392.2 -628.7 290.8 -642 208.6C-655.2 126.3 -705.6 63.2 -756 0L0 0Z" fill="#45546f"></path><path d="M0 648C-74 648.6 -148 649.2 -199.2 613C-250.4 576.8 -278.9 503.8 -338.6 466C-398.2 428.2 -489.1 425.6 -524.2 380.9C-559.4 336.2 -538.9 249.3 -550.3 178.8C-561.6 108.3 -604.8 54.1 -648 0L0 0Z" fill="#3c6281"></path><path d="M0 540C-61.6 540.5 -123.3 541 -166 510.9C-208.7 480.7 -232.4 419.8 -282.1 388.3C-331.9 356.8 -407.6 354.7 -436.9 317.4C-466.2 280.1 -449.1 207.7 -458.5 149C-468 90.2 -504 45.1 -540 0L0 0Z" fill="#2a718f"></path><path d="M0 432C-49.3 432.4 -98.6 432.8 -132.8 408.7C-166.9 384.5 -185.9 335.9 -225.7 310.7C-265.5 285.5 -326 283.7 -349.5 253.9C-372.9 224.1 -359.3 166.2 -366.8 119.2C-374.4 72.2 -403.2 36.1 -432 0L0 0Z" fill="#008198"></path><path d="M0 324C-37 324.3 -74 324.6 -99.6 306.5C-125.2 288.4 -139.4 251.9 -169.3 233C-199.1 214.1 -244.5 212.8 -262.1 190.4C-279.7 168.1 -269.5 124.6 -275.1 89.4C-280.8 54.1 -302.4 27.1 -324 0L0 0Z" fill="#00909b"></path><path d="M0 216C-24.7 216.2 -49.3 216.4 -66.4 204.3C-83.5 192.3 -93 167.9 -112.9 155.3C-132.7 142.7 -163 141.9 -174.7 127C-186.5 112.1 -179.6 83.1 -183.4 59.6C-187.2 36.1 -201.6 18 -216 0L0 0Z" fill="#009e99"></path><path d="M0 108C-12.3 108.1 -24.7 108.2 -33.2 102.2C-41.7 96.1 -46.5 84 -56.4 77.7C-66.4 71.4 -81.5 70.9 -87.4 63.5C-93.2 56 -89.8 41.5 -91.7 29.8C-93.6 18 -100.8 9 -108 0L0 0Z" fill="#00a595"></path></g><g transform="translate(0, 1080)"><path d="M0 -756C82.9 -751.8 165.7 -747.6 229.3 -705.7C292.9 -663.7 337.2 -584 382.1 -525.9C427 -467.7 472.5 -431.2 535.6 -389.1C598.7 -347 679.3 -299.4 719 -233.6C758.7 -167.8 757.3 -83.9 756 0L0 0Z" fill="#45546f"></path><path d="M0 -648C71 -644.4 142 -640.8 196.5 -604.9C251 -568.9 289 -500.6 327.5 -450.7C366 -400.9 405 -369.6 459.1 -333.5C513.1 -297.5 582.3 -256.6 616.3 -200.2C650.3 -143.9 649.1 -71.9 648 0L0 0Z" fill="#3c6281"></path><path d="M0 -540C59.2 -537 118.4 -534 163.8 -504.1C209.2 -474.1 240.8 -417.1 272.9 -375.6C305 -334.1 337.5 -308 382.5 -277.9C427.6 -247.9 485.2 -213.9 513.6 -166.9C541.9 -119.9 541 -59.9 540 0L0 0Z" fill="#2a718f"></path><path d="M0 -432C47.3 -429.6 94.7 -427.2 131 -403.2C167.4 -379.3 192.7 -333.7 218.3 -300.5C244 -267.3 270 -246.4 306 -222.4C342.1 -198.3 388.2 -171.1 410.9 -133.5C433.5 -95.9 432.8 -48 432 0L0 0Z" fill="#008198"></path><path d="M0 -324C35.5 -322.2 71 -320.4 98.3 -302.4C125.5 -284.5 144.5 -250.3 163.7 -225.4C183 -200.5 202.5 -184.8 229.5 -166.8C256.6 -148.7 291.1 -128.3 308.1 -100.1C325.1 -71.9 324.6 -36 324 0L0 0Z" fill="#00909b"></path><path d="M0 -216C23.7 -214.8 47.3 -213.6 65.5 -201.6C83.7 -189.6 96.3 -166.9 109.2 -150.2C122 -133.6 135 -123.2 153 -111.2C171 -99.2 194.1 -85.5 205.4 -66.7C216.8 -48 216.4 -24 216 0L0 0Z" fill="#009e99"></path><path d="M0 -108C11.8 -107.4 23.7 -106.8 32.8 -100.8C41.8 -94.8 48.2 -83.4 54.6 -75.1C61 -66.8 67.5 -61.6 76.5 -55.6C85.5 -49.6 97 -42.8 102.7 -33.4C108.4 -24 108.2 -12 108 0L0 0Z" fill="#00a595"></path></g></svg>