<svg width="615" height="615" viewBox="0 0 615 615" fill="none" xmlns="http://www.w3.org/2000/svg">
<path d="M294.153 232.488C171.419 240.775 124.973 177.56 89.2462 146C69.0709 340.898 124.133 368.507 183.819 396.067C243.504 423.627 385.993 367.88 473 400.644C468.586 261.879 416.887 224.2 294.153 232.488Z" fill="url(#paint0_linear_327_13)"/>
<g filter="url(#filter0_d_327_13)">
<path d="M501.192 120H304.768C313.477 177.22 369.356 177.22 369.356 177.22H398.384L358.47 456.559H268C268 476.115 291.569 513.296 319.63 513.296H464.665C470.148 512.813 481.453 506.778 482.807 486.497C484.162 466.217 466.923 458.088 458.134 456.559H417.494L456.198 177.22C469.745 177.703 499.208 178.379 508.691 177.22C520.544 175.771 530.704 168.77 530.704 145.351C530.704 126.615 511.029 120.644 501.192 120Z" fill="url(#paint1_linear_327_13)"/>
</g>
<g filter="url(#filter1_d_327_13)">
<path d="M164.576 243.566C133.398 226.512 97.2474 176.866 89.5647 144C86.0031 166.53 77.9571 248.363 91.8697 284.023C109.26 328.597 166.671 365.177 213.815 365.177C260.958 365.177 357.131 350.642 402.18 362.27C438.218 371.573 464.759 383.992 473 402C464.125 288.097 376.798 278.962 302.864 273.848C253.834 270.456 203.548 264.885 164.576 243.566Z" fill="url(#paint2_linear_327_13)" fill-opacity="0.7"/>
</g>
<g filter="url(#filter2_d_327_13)">
<path d="M166.824 345.441C108.737 323.367 93.1694 234.345 89.8214 146C51.3199 415.875 213.696 423.136 286.304 406.92C358.913 390.703 418.13 386.104 474 402.079C456.422 375.212 435.08 359.48 373.77 356.333C312.461 353.187 239.433 373.034 166.824 345.441Z" fill="url(#paint3_linear_327_13)"/>
</g>
<defs>
<filter id="filter0_d_327_13" x="251" y="110" width="282.704" height="413.297" filterUnits="userSpaceOnUse" color-interpolation-filters="sRGB">
<feFlood flood-opacity="0" result="BackgroundImageFix"/>
<feColorMatrix in="SourceAlpha" type="matrix" values="0 0 0 0 0 0 0 0 0 0 0 0 0 0 0 0 0 0 127 0" result="hardAlpha"/>
<feOffset dx="-7"/>
<feGaussianBlur stdDeviation="5"/>
<feColorMatrix type="matrix" values="0 0 0 0 0 0 0 0 0 0 0 0 0 0 0 0 0 0 0.25 0"/>
<feBlend mode="normal" in2="BackgroundImageFix" result="effect1_dropShadow_327_13"/>
<feBlend mode="normal" in="SourceGraphic" in2="effect1_dropShadow_327_13" result="shape"/>
</filter>
<filter id="filter1_d_327_13" x="62" y="107" width="433" height="302" filterUnits="userSpaceOnUse" color-interpolation-filters="sRGB">
<feFlood flood-opacity="0" result="BackgroundImageFix"/>
<feColorMatrix in="SourceAlpha" type="matrix" values="0 0 0 0 0 0 0 0 0 0 0 0 0 0 0 0 0 0 127 0" result="hardAlpha"/>
<feOffset dy="-15"/>
<feGaussianBlur stdDeviation="11"/>
<feColorMatrix type="matrix" values="0 0 0 0 0 0 0 0 0 0 0 0 0 0 0 0 0 0 0.25 0"/>
<feBlend mode="normal" in2="BackgroundImageFix" result="effect1_dropShadow_327_13"/>
<feBlend mode="normal" in="SourceGraphic" in2="effect1_dropShadow_327_13" result="shape"/>
</filter>
<filter id="filter2_d_327_13" x="55" y="99" width="448" height="324" filterUnits="userSpaceOnUse" color-interpolation-filters="sRGB">
<feFlood flood-opacity="0" result="BackgroundImageFix"/>
<feColorMatrix in="SourceAlpha" type="matrix" values="0 0 0 0 0 0 0 0 0 0 0 0 0 0 0 0 0 0 127 0" result="hardAlpha"/>
<feOffset dy="-18"/>
<feGaussianBlur stdDeviation="14.5"/>
<feColorMatrix type="matrix" values="0 0 0 0 0 0 0 0 0 0 0 0 0 0 0 0 0 0 0.25 0"/>
<feBlend mode="normal" in2="BackgroundImageFix" result="effect1_dropShadow_327_13"/>
<feBlend mode="normal" in="SourceGraphic" in2="effect1_dropShadow_327_13" result="shape"/>
</filter>
<linearGradient id="paint0_linear_327_13" x1="279" y1="146" x2="279" y2="404" gradientUnits="userSpaceOnUse">
<stop stop-color="#028987"/>
<stop offset="1" stop-color="#025A42"/>
</linearGradient>
<linearGradient id="paint1_linear_327_13" x1="247.883" y1="245.743" x2="462.692" y2="354.619" gradientUnits="userSpaceOnUse">
<stop stop-color="#03756B"/>
<stop offset="1" stop-color="#E3ED24"/>
</linearGradient>
<linearGradient id="paint2_linear_327_13" x1="226.596" y1="197.296" x2="404.99" y2="395.215" gradientUnits="userSpaceOnUse">
<stop stop-color="#51FBE5"/>
<stop offset="1" stop-color="#A4D76C"/>
</linearGradient>
<linearGradient id="paint3_linear_327_13" x1="162.221" y1="250.319" x2="509.497" y2="397.959" gradientUnits="userSpaceOnUse">
<stop stop-color="#A3D972"/>
<stop offset="1" stop-color="#FFF500"/>
</linearGradient>
</defs>
</svg>
