<svg width="172" height="172" viewBox="0 0 172 172" fill="none" xmlns="http://www.w3.org/2000/svg">
<path d="M85.9004 171.4C133.121 171.4 171.4 133.12 171.4 85.8999C171.4 38.6796 133.121 0.399902 85.9004 0.399902C38.68 0.399902 0.400391 38.6796 0.400391 85.8999C0.400391 133.12 38.68 171.4 85.9004 171.4Z" fill="#FF4500"/>
<path d="M142.901 85.8999C142.901 78.9999 137.301 73.3999 130.401 73.3999C127.001 73.3999 124.001 74.6999 121.801 76.8999C113.301 70.7999 101.501 66.8 88.5006 66.3L94.2006 39.6L112.701 43.5C112.901 48.2 116.801 52 121.601 52C126.501 52 130.501 48 130.501 43.1C130.501 38.2 126.501 34.2 121.601 34.2C118.101 34.2 115.101 36.2 113.701 39.2L93.0006 34.8C92.4006 34.7 91.8006 34.8 91.3006 35.1C90.8006 35.4 90.5006 35.9 90.3006 36.5L84.0006 66.3C70.7006 66.7 58.8006 70.5999 50.2006 76.8999C48.0006 74.7999 44.9006 73.3999 41.6006 73.3999C34.7006 73.3999 29.1006 78.9999 29.1006 85.8999C29.1006 90.9999 32.1006 95.3 36.5006 97.3C36.3006 98.5 36.2006 99.8 36.2006 101.1C36.2006 120.3 58.5006 135.8 86.1006 135.8C113.701 135.8 136.001 120.3 136.001 101.1C136.001 99.8 135.901 98.5999 135.701 97.3999C139.801 95.3999 142.901 90.9999 142.901 85.8999ZM57.4006 94.8C57.4006 89.9 61.4006 85.8999 66.3006 85.8999C71.2006 85.8999 75.2006 89.9 75.2006 94.8C75.2006 99.7 71.2006 103.7 66.3006 103.7C61.4006 103.7 57.4006 99.7 57.4006 94.8ZM107.101 118.3C101.001 124.4 89.4006 124.8 86.0006 124.8C82.6006 124.8 70.9006 124.3 64.9006 118.3C64.0006 117.4 64.0006 115.9 64.9006 115C65.8006 114.1 67.3006 114.1 68.2006 115C72.0006 118.8 80.2006 120.2 86.1006 120.2C92.0006 120.2 100.101 118.8 104.001 115C104.901 114.1 106.401 114.1 107.301 115C108.001 116 108.001 117.4 107.101 118.3ZM105.501 103.7C100.601 103.7 96.6006 99.7 96.6006 94.8C96.6006 89.9 100.601 85.8999 105.501 85.8999C110.401 85.8999 114.401 89.9 114.401 94.8C114.401 99.7 110.401 103.7 105.501 103.7Z" fill="white"/>
</svg>
