<svg width="265" height="45" viewBox="0 0 265 45" fill="none" xmlns="http://www.w3.org/2000/svg">
<path d="M212.456 16.38C214.184 16.38 215.492 16.752 216.38 17.496C217.292 18.24 217.916 19.236 218.252 20.484C218.588 21.708 218.756 23.076 218.756 24.588V33.804C218.756 34.428 218.552 34.956 218.144 35.388C217.736 35.796 217.22 36 216.596 36C215.972 36 215.456 35.796 215.048 35.388C214.64 34.956 214.436 34.428 214.436 33.804V24.588C214.436 23.796 214.34 23.088 214.148 22.464C213.956 21.816 213.608 21.3 213.104 20.916C212.6 20.532 211.88 20.34 210.944 20.34C210.032 20.34 209.252 20.532 208.604 20.916C207.956 21.3 207.464 21.816 207.128 22.464C206.816 23.088 206.66 23.796 206.66 24.588V33.804C206.66 34.428 206.456 34.956 206.048 35.388C205.64 35.796 205.124 36 204.5 36C203.876 36 203.36 35.796 202.952 35.388C202.544 34.956 202.34 34.428 202.34 33.804V11.556C202.34 10.932 202.544 10.416 202.952 10.008C203.36 9.576 203.876 9.36 204.5 9.36C205.124 9.36 205.64 9.576 206.048 10.008C206.456 10.416 206.66 10.932 206.66 11.556V20.484L206.12 20.376C206.336 19.968 206.636 19.536 207.02 19.08C207.404 18.6 207.872 18.156 208.424 17.748C208.976 17.34 209.588 17.016 210.26 16.776C210.932 16.512 211.664 16.38 212.456 16.38ZM237.726 16.74C238.35 16.74 238.866 16.956 239.274 17.388C239.682 17.796 239.886 18.312 239.886 18.936V28.08C239.886 30.624 239.178 32.64 237.762 34.128C236.346 35.616 234.306 36.36 231.642 36.36C228.978 36.36 226.938 35.616 225.522 34.128C224.13 32.64 223.434 30.624 223.434 28.08V18.936C223.434 18.312 223.638 17.796 224.046 17.388C224.454 16.956 224.97 16.74 225.594 16.74C226.218 16.74 226.734 16.956 227.142 17.388C227.55 17.796 227.754 18.312 227.754 18.936V28.08C227.754 29.544 228.078 30.636 228.726 31.356C229.374 32.052 230.346 32.4 231.642 32.4C232.962 32.4 233.946 32.052 234.594 31.356C235.242 30.636 235.566 29.544 235.566 28.08V18.936C235.566 18.312 235.77 17.796 236.178 17.388C236.586 16.956 237.102 16.74 237.726 16.74ZM254.535 16.38C256.215 16.38 257.715 16.812 259.035 17.676C260.379 18.516 261.435 19.68 262.203 21.168C262.995 22.656 263.391 24.384 263.391 26.352C263.391 28.32 262.995 30.06 262.203 31.572C261.435 33.06 260.391 34.236 259.071 35.1C257.775 35.94 256.311 36.36 254.679 36.36C253.719 36.36 252.819 36.204 251.979 35.892C251.139 35.58 250.395 35.184 249.747 34.704C249.123 34.224 248.631 33.744 248.271 33.264C247.935 32.76 247.767 32.34 247.767 32.004L248.883 31.536V34.164C248.883 34.788 248.679 35.316 248.271 35.748C247.863 36.156 247.347 36.36 246.723 36.36C246.099 36.36 245.583 36.156 245.175 35.748C244.767 35.34 244.563 34.812 244.563 34.164V11.556C244.563 10.932 244.767 10.416 245.175 10.008C245.583 9.576 246.099 9.36 246.723 9.36C247.347 9.36 247.863 9.576 248.271 10.008C248.679 10.416 248.883 10.932 248.883 11.556V20.7L248.271 20.376C248.271 20.064 248.439 19.692 248.775 19.26C249.111 18.804 249.567 18.36 250.143 17.928C250.719 17.472 251.379 17.1 252.123 16.812C252.891 16.524 253.695 16.38 254.535 16.38ZM253.995 20.34C252.939 20.34 252.015 20.604 251.223 21.132C250.431 21.66 249.807 22.38 249.351 23.292C248.919 24.18 248.703 25.2 248.703 26.352C248.703 27.48 248.919 28.512 249.351 29.448C249.807 30.36 250.431 31.08 251.223 31.608C252.015 32.136 252.939 32.4 253.995 32.4C255.051 32.4 255.963 32.136 256.731 31.608C257.523 31.08 258.135 30.36 258.567 29.448C259.023 28.512 259.251 27.48 259.251 26.352C259.251 25.2 259.023 24.18 258.567 23.292C258.135 22.38 257.523 21.66 256.731 21.132C255.963 20.604 255.051 20.34 253.995 20.34Z" fill="#99DBD5"/>
<path d="M65.412 36.36C63.372 36.36 61.596 35.94 60.084 35.1C58.596 34.236 57.444 33.072 56.628 31.608C55.836 30.144 55.44 28.488 55.44 26.64C55.44 24.48 55.872 22.644 56.736 21.132C57.624 19.596 58.776 18.42 60.192 17.604C61.608 16.788 63.108 16.38 64.692 16.38C65.916 16.38 67.068 16.632 68.148 17.136C69.252 17.64 70.224 18.336 71.064 19.224C71.904 20.088 72.564 21.096 73.044 22.248C73.548 23.4 73.8 24.624 73.8 25.92C73.776 26.496 73.548 26.964 73.116 27.324C72.684 27.684 72.18 27.864 71.604 27.864H57.852L56.772 24.264H69.984L69.192 24.984V24.012C69.144 23.316 68.892 22.692 68.436 22.14C68.004 21.588 67.452 21.156 66.78 20.844C66.132 20.508 65.436 20.34 64.692 20.34C63.972 20.34 63.3 20.436 62.676 20.628C62.052 20.82 61.512 21.144 61.056 21.6C60.6 22.056 60.24 22.668 59.976 23.436C59.712 24.204 59.58 25.176 59.58 26.352C59.58 27.648 59.844 28.752 60.372 29.664C60.924 30.552 61.62 31.236 62.46 31.716C63.324 32.172 64.236 32.4 65.196 32.4C66.084 32.4 66.792 32.328 67.32 32.184C67.848 32.04 68.268 31.872 68.58 31.68C68.916 31.464 69.216 31.284 69.48 31.14C69.912 30.924 70.32 30.816 70.704 30.816C71.232 30.816 71.664 30.996 72 31.356C72.36 31.716 72.54 32.136 72.54 32.616C72.54 33.264 72.204 33.852 71.532 34.38C70.908 34.908 70.032 35.376 68.904 35.784C67.776 36.168 66.612 36.36 65.412 36.36ZM76.4584 33.012C76.2184 32.676 76.1104 32.244 76.1344 31.716C76.1584 31.188 76.4704 30.732 77.0704 30.348C77.4544 30.108 77.8624 30.012 78.2944 30.06C78.7264 30.084 79.1464 30.3 79.5544 30.708C80.2504 31.404 80.9824 31.944 81.7504 32.328C82.5184 32.712 83.4784 32.904 84.6304 32.904C84.9904 32.88 85.3864 32.832 85.8184 32.76C86.2504 32.664 86.6224 32.472 86.9344 32.184C87.2704 31.872 87.4384 31.404 87.4384 30.78C87.4384 30.252 87.2584 29.832 86.8984 29.52C86.5384 29.208 86.0584 28.944 85.4584 28.728C84.8824 28.512 84.2344 28.308 83.5144 28.116C82.7704 27.9 82.0024 27.66 81.2104 27.396C80.4424 27.132 79.7344 26.796 79.0864 26.388C78.4384 25.956 77.9104 25.392 77.5024 24.696C77.0944 24 76.8904 23.124 76.8904 22.068C76.8904 20.868 77.2264 19.848 77.8984 19.008C78.5704 18.168 79.4344 17.52 80.4904 17.064C81.5704 16.608 82.6984 16.38 83.8744 16.38C84.6184 16.38 85.3984 16.476 86.2144 16.668C87.0304 16.836 87.8104 17.124 88.5544 17.532C89.2984 17.916 89.9224 18.432 90.4264 19.08C90.6904 19.44 90.8464 19.872 90.8944 20.376C90.9424 20.88 90.7144 21.336 90.2104 21.744C89.8504 22.032 89.4304 22.164 88.9504 22.14C88.4704 22.092 88.0744 21.924 87.7624 21.636C87.3544 21.108 86.8024 20.688 86.1064 20.376C85.4344 20.064 84.6544 19.908 83.7664 19.908C83.4064 19.908 83.0104 19.956 82.5784 20.052C82.1704 20.124 81.8104 20.304 81.4984 20.592C81.1864 20.856 81.0304 21.288 81.0304 21.888C81.0304 22.44 81.2104 22.884 81.5704 23.22C81.9304 23.532 82.4104 23.796 83.0104 24.012C83.6344 24.204 84.2944 24.396 84.9904 24.588C85.7104 24.78 86.4424 25.008 87.1864 25.272C87.9304 25.536 88.6144 25.884 89.2384 26.316C89.8624 26.748 90.3664 27.312 90.7504 28.008C91.1344 28.68 91.3264 29.544 91.3264 30.6C91.3264 31.824 90.9664 32.868 90.2464 33.732C89.5264 34.596 88.6264 35.256 87.5464 35.712C86.4664 36.144 85.3624 36.36 84.2344 36.36C82.8184 36.36 81.4024 36.12 79.9864 35.64C78.5704 35.136 77.3944 34.26 76.4584 33.012ZM104.914 16.38C106.594 16.38 108.094 16.812 109.414 17.676C110.758 18.516 111.814 19.68 112.582 21.168C113.374 22.656 113.77 24.384 113.77 26.352C113.77 28.32 113.374 30.06 112.582 31.572C111.814 33.06 110.77 34.236 109.45 35.1C108.154 35.94 106.69 36.36 105.058 36.36C104.098 36.36 103.198 36.204 102.358 35.892C101.518 35.58 100.774 35.184 100.126 34.704C99.5016 34.224 99.0096 33.744 98.6496 33.264C98.3136 32.76 98.1456 32.34 98.1456 32.004L99.2616 31.536V41.004C99.2616 41.628 99.0576 42.144 98.6496 42.552C98.2416 42.984 97.7256 43.2 97.1016 43.2C96.4776 43.2 95.9616 42.996 95.5536 42.588C95.1456 42.18 94.9416 41.652 94.9416 41.004V18.936C94.9416 18.312 95.1456 17.796 95.5536 17.388C95.9616 16.956 96.4776 16.74 97.1016 16.74C97.7256 16.74 98.2416 16.956 98.6496 17.388C99.0576 17.796 99.2616 18.312 99.2616 18.936V20.7L98.6496 20.376C98.6496 20.064 98.8176 19.692 99.1536 19.26C99.4896 18.804 99.9456 18.36 100.522 17.928C101.098 17.472 101.758 17.1 102.502 16.812C103.27 16.524 104.074 16.38 104.914 16.38ZM104.374 20.34C103.318 20.34 102.394 20.604 101.602 21.132C100.81 21.66 100.186 22.38 99.7296 23.292C99.2976 24.18 99.0816 25.2 99.0816 26.352C99.0816 27.48 99.2976 28.512 99.7296 29.448C100.186 30.36 100.81 31.08 101.602 31.608C102.394 32.136 103.318 32.4 104.374 32.4C105.43 32.4 106.342 32.136 107.11 31.608C107.902 31.08 108.514 30.36 108.946 29.448C109.402 28.512 109.63 27.48 109.63 26.352C109.63 25.2 109.402 24.18 108.946 23.292C108.514 22.38 107.902 21.66 107.11 21.132C106.342 20.604 105.43 20.34 104.374 20.34ZM133.315 16.38C133.939 16.38 134.455 16.584 134.863 16.992C135.271 17.4 135.475 17.928 135.475 18.576V33.804C135.475 34.428 135.271 34.956 134.863 35.388C134.455 35.796 133.939 36 133.315 36C132.691 36 132.175 35.796 131.767 35.388C131.359 34.956 131.155 34.428 131.155 33.804V32.04L131.947 32.364C131.947 32.676 131.779 33.06 131.443 33.516C131.107 33.948 130.651 34.38 130.075 34.812C129.499 35.244 128.815 35.616 128.023 35.928C127.255 36.216 126.415 36.36 125.503 36.36C123.847 36.36 122.347 35.94 121.003 35.1C119.659 34.236 118.591 33.06 117.799 31.572C117.031 30.06 116.647 28.332 116.647 26.388C116.647 24.42 117.031 22.692 117.799 21.204C118.591 19.692 119.647 18.516 120.967 17.676C122.287 16.812 123.751 16.38 125.359 16.38C126.391 16.38 127.339 16.536 128.203 16.848C129.067 17.16 129.811 17.556 130.435 18.036C131.083 18.516 131.575 19.008 131.911 19.512C132.271 19.992 132.451 20.4 132.451 20.736L131.155 21.204V18.576C131.155 17.952 131.359 17.436 131.767 17.028C132.175 16.596 132.691 16.38 133.315 16.38ZM126.043 32.4C127.099 32.4 128.023 32.136 128.815 31.608C129.607 31.08 130.219 30.36 130.651 29.448C131.107 28.536 131.335 27.516 131.335 26.388C131.335 25.236 131.107 24.204 130.651 23.292C130.219 22.38 129.607 21.66 128.815 21.132C128.023 20.604 127.099 20.34 126.043 20.34C125.011 20.34 124.099 20.604 123.307 21.132C122.515 21.66 121.891 22.38 121.435 23.292C121.003 24.204 120.787 25.236 120.787 26.388C120.787 27.516 121.003 28.536 121.435 29.448C121.891 30.36 122.515 31.08 123.307 31.608C124.099 32.136 125.011 32.4 126.043 32.4ZM150.449 16.38C152.225 16.38 153.569 16.752 154.481 17.496C155.417 18.24 156.053 19.236 156.389 20.484C156.749 21.708 156.929 23.076 156.929 24.588V33.804C156.929 34.428 156.725 34.956 156.316 35.388C155.909 35.796 155.393 36 154.769 36C154.145 36 153.629 35.796 153.221 35.388C152.813 34.956 152.609 34.428 152.609 33.804V24.588C152.609 23.796 152.501 23.088 152.285 22.464C152.093 21.816 151.733 21.3 151.205 20.916C150.677 20.532 149.921 20.34 148.937 20.34C147.977 20.34 147.161 20.532 146.489 20.916C145.841 21.3 145.337 21.816 144.977 22.464C144.641 23.088 144.473 23.796 144.473 24.588V33.804C144.473 34.428 144.269 34.956 143.861 35.388C143.453 35.796 142.937 36 142.312 36C141.689 36 141.173 35.796 140.765 35.388C140.357 34.956 140.153 34.428 140.153 33.804V18.936C140.153 18.312 140.357 17.796 140.765 17.388C141.173 16.956 141.689 16.74 142.312 16.74C142.937 16.74 143.453 16.956 143.861 17.388C144.269 17.796 144.473 18.312 144.473 18.936V20.484L143.933 20.376C144.149 19.968 144.461 19.536 144.869 19.08C145.277 18.6 145.757 18.156 146.309 17.748C146.861 17.34 147.485 17.016 148.181 16.776C148.877 16.512 149.633 16.38 150.449 16.38ZM160.482 33.012C160.242 32.676 160.134 32.244 160.158 31.716C160.182 31.188 160.494 30.732 161.094 30.348C161.478 30.108 161.886 30.012 162.318 30.06C162.75 30.084 163.17 30.3 163.578 30.708C164.274 31.404 165.006 31.944 165.774 32.328C166.542 32.712 167.502 32.904 168.654 32.904C169.014 32.88 169.41 32.832 169.842 32.76C170.274 32.664 170.646 32.472 170.958 32.184C171.294 31.872 171.462 31.404 171.462 30.78C171.462 30.252 171.282 29.832 170.922 29.52C170.562 29.208 170.082 28.944 169.482 28.728C168.906 28.512 168.258 28.308 167.538 28.116C166.794 27.9 166.026 27.66 165.234 27.396C164.466 27.132 163.758 26.796 163.11 26.388C162.462 25.956 161.934 25.392 161.526 24.696C161.118 24 160.914 23.124 160.914 22.068C160.914 20.868 161.25 19.848 161.922 19.008C162.594 18.168 163.458 17.52 164.514 17.064C165.594 16.608 166.722 16.38 167.898 16.38C168.642 16.38 169.422 16.476 170.238 16.668C171.054 16.836 171.834 17.124 172.578 17.532C173.322 17.916 173.946 18.432 174.45 19.08C174.714 19.44 174.87 19.872 174.918 20.376C174.966 20.88 174.738 21.336 174.234 21.744C173.874 22.032 173.454 22.164 172.974 22.14C172.494 22.092 172.098 21.924 171.786 21.636C171.378 21.108 170.826 20.688 170.13 20.376C169.458 20.064 168.678 19.908 167.79 19.908C167.43 19.908 167.034 19.956 166.602 20.052C166.194 20.124 165.834 20.304 165.522 20.592C165.21 20.856 165.054 21.288 165.054 21.888C165.054 22.44 165.234 22.884 165.594 23.22C165.954 23.532 166.434 23.796 167.034 24.012C167.658 24.204 168.318 24.396 169.014 24.588C169.734 24.78 170.466 25.008 171.21 25.272C171.954 25.536 172.638 25.884 173.262 26.316C173.886 26.748 174.39 27.312 174.774 28.008C175.158 28.68 175.35 29.544 175.35 30.6C175.35 31.824 174.99 32.868 174.27 33.732C173.55 34.596 172.65 35.256 171.57 35.712C170.49 36.144 169.386 36.36 168.258 36.36C166.842 36.36 165.426 36.12 164.01 35.64C162.594 35.136 161.418 34.26 160.482 33.012ZM197.649 26.388C197.649 28.356 197.205 30.096 196.317 31.608C195.453 33.096 194.277 34.26 192.789 35.1C191.325 35.94 189.681 36.36 187.857 36.36C186.033 36.36 184.377 35.94 182.889 35.1C181.425 34.26 180.249 33.096 179.361 31.608C178.497 30.096 178.065 28.356 178.065 26.388C178.065 24.42 178.497 22.692 179.361 21.204C180.249 19.692 181.425 18.516 182.889 17.676C184.377 16.812 186.033 16.38 187.857 16.38C189.681 16.38 191.325 16.812 192.789 17.676C194.277 18.516 195.453 19.692 196.317 21.204C197.205 22.692 197.649 24.42 197.649 26.388ZM193.329 26.388C193.329 25.164 193.077 24.108 192.573 23.22C192.093 22.308 191.433 21.6 190.593 21.096C189.777 20.592 188.865 20.34 187.857 20.34C186.849 20.34 185.925 20.592 185.085 21.096C184.269 21.6 183.609 22.308 183.105 23.22C182.625 24.108 182.385 25.164 182.385 26.388C182.385 27.588 182.625 28.644 183.105 29.556C183.609 30.444 184.269 31.14 185.085 31.644C185.925 32.148 186.849 32.4 187.857 32.4C188.865 32.4 189.777 32.148 190.593 31.644C191.433 31.14 192.093 30.444 192.573 29.556C193.077 28.644 193.329 27.588 193.329 26.388Z" fill="white"/>
<path d="M20.1385 5H27.3617M34.585 5H27.3617M27.3617 5L22.6122 40M22.6122 40H15.389M22.6122 40H29.8355M15.389 28.2999C-0.0717318 28.2999 2.10509 10.111 2.10509 10.111C2.10509 10.111 10.8868 16.4996 16.8237 16.4996M34.585 16.4996C42 18.7294 42 28.2999 42 28.2999H33.2183" stroke="white" stroke-width="4" stroke-linecap="round"/>
</svg>
